<?xml version="1.0" encoding="utf-8"?>
<!-- Generator: Adobe Illustrator 14.0.0, SVG Export Plug-In . SVG Version: 6.00 Build 43363)  -->
<!DOCTYPE svg PUBLIC "-//W3C//DTD SVG 1.0//EN" "http://www.w3.org/TR/2001/REC-SVG-20010904/DTD/svg10.dtd">
<svg version="1.0" id="Layer_1" xmlns="http://www.w3.org/2000/svg" xmlns:xlink="http://www.w3.org/1999/xlink" x="0px" y="0px"
	 width="93px" height="58.115px" viewBox="0 0 93 58.115" enable-background="new 0 0 93 58.115" xml:space="preserve">
<polygon fill="#39B54A" points="60.923,11.007 79.01,11.007 79.01,3 6.828,3 6.828,11.007 51.546,11.007 50.247,3.694 "/>
<polygon fill="#F7941E" points="17.97,13.9 17.97,21.906 53.487,21.906 52.062,13.9 "/>
<polyline fill="#262262" points="57.879,46.601 6.828,46.601 6.828,54.607 59.492,54.607 "/>
<polygon fill="#FFDE17" points="55.94,35.7 17.97,35.7 17.97,43.707 57.364,43.707 "/>
<polygon stroke="#414042" points="54.168,9.831 61.727,52.323 70.8,41.203 79.367,52.323 84.912,48.292 75.84,37.323 87.936,32.96 
	"/>
<g>
	<path fill="#6D6E71" d="M8.822,32.278c-1.539,0-2.747-1.137-2.747-2.948c0-1.918,1.267-3.043,2.842-3.043
		c1.646,0,2.759,1.196,2.759,2.937c0,2.131-1.48,3.055-2.842,3.055H8.822z M8.858,31.497c0.995,0,1.741-0.935,1.741-2.238
		c0-0.971-0.485-2.19-1.717-2.19c-1.22,0-1.752,1.137-1.752,2.226c0,1.255,0.71,2.202,1.717,2.202H8.858z"/>
	<path fill="#6D6E71" d="M12.993,28.288c0-0.734-0.012-1.326-0.047-1.871h0.936L13.94,27.4h0.024
		c0.415-0.71,1.101-1.113,2.025-1.113c1.397,0,2.439,1.172,2.439,2.913c0,2.06-1.267,3.079-2.605,3.079
		c-0.77,0-1.421-0.332-1.764-0.9h-0.024v3.114h-1.042V28.288z M14.035,29.815c0,0.142,0.012,0.296,0.047,0.426
		c0.178,0.722,0.817,1.219,1.551,1.219c1.101,0,1.741-0.899,1.741-2.214c0-1.148-0.592-2.131-1.693-2.131
		c-0.71,0-1.385,0.497-1.586,1.279c-0.024,0.142-0.06,0.296-0.06,0.426V29.815z"/>
	<path fill="#6D6E71" d="M20.337,29.46c0.023,1.409,0.912,1.989,1.954,1.989c0.746,0,1.208-0.13,1.586-0.284l0.189,0.734
		c-0.367,0.166-1.006,0.367-1.918,0.367c-1.752,0-2.818-1.172-2.818-2.89c0-1.74,1.03-3.102,2.7-3.102
		c1.871,0,2.356,1.646,2.356,2.7c0,0.213-0.012,0.379-0.036,0.497L20.337,29.46z M23.38,28.714c0.012-0.651-0.272-1.693-1.433-1.693
		c-1.066,0-1.516,0.971-1.599,1.693H23.38z"/>
	<path fill="#6D6E71" d="M25.679,27.968c0-0.604-0.012-1.078-0.047-1.551h0.924l0.059,0.936h0.024
		c0.284-0.533,0.947-1.066,1.895-1.066c0.793,0,2.024,0.474,2.024,2.439v3.422h-1.042v-3.304c0-0.923-0.343-1.705-1.326-1.705
		c-0.675,0-1.208,0.486-1.397,1.066c-0.047,0.13-0.071,0.319-0.071,0.485v3.458h-1.042V27.968z"/>
	<path fill="#6D6E71" d="M32.1,30.585c0.332,0.201,1.019,0.426,1.551,0.426c0.544,0,0.77-0.178,0.77-0.474
		c0-0.308-0.178-0.45-0.841-0.675c-1.208-0.391-1.669-1.054-1.658-1.729c0-1.089,0.924-1.906,2.356-1.906
		c0.675,0,1.267,0.166,1.622,0.343l-0.308,1.231c-0.261-0.13-0.77-0.32-1.255-0.32c-0.438,0-0.687,0.178-0.687,0.462
		s0.225,0.426,0.935,0.675c1.102,0.367,1.551,0.936,1.563,1.776c0,1.089-0.841,1.883-2.499,1.883c-0.758,0-1.433-0.178-1.871-0.415
		L32.1,30.585z"/>
	<path fill="#6D6E71" d="M39.266,24.783v1.575h1.291v1.326h-1.291v2.107c0,0.699,0.178,1.019,0.71,1.019
		c0.249,0,0.367-0.012,0.533-0.047l0.012,1.361c-0.225,0.083-0.663,0.154-1.16,0.154c-0.58,0-1.066-0.201-1.362-0.498
		c-0.332-0.343-0.498-0.9-0.498-1.717v-2.38h-0.77v-1.326h0.77v-1.089L39.266,24.783z"/>
	<path fill="#6D6E71" d="M46.419,30.751c0,0.544,0.023,1.077,0.095,1.397h-1.622l-0.106-0.58H44.75
		c-0.379,0.461-0.971,0.71-1.658,0.71c-1.172,0-1.871-0.853-1.871-1.776c0-1.504,1.35-2.214,3.398-2.214v-0.071
		c0-0.308-0.166-0.746-1.054-0.746c-0.592,0-1.22,0.201-1.599,0.426l-0.332-1.148c0.403-0.225,1.196-0.521,2.25-0.521
		c1.93,0,2.534,1.137,2.534,2.499V30.751z M44.678,29.413c-0.947,0-1.681,0.225-1.681,0.912c0,0.462,0.308,0.687,0.71,0.687
		c0.438,0,0.817-0.296,0.935-0.663c0.024-0.095,0.036-0.201,0.036-0.308V29.413z"/>
	<path fill="#6D6E71" d="M49.228,26.358l0.568,0.971c0.166,0.296,0.32,0.581,0.474,0.865h0.024c0.154-0.32,0.296-0.604,0.45-0.9
		l0.509-0.935h1.954L51.3,29.117l1.93,3.031h-2.037l-0.58-1.042c-0.166-0.284-0.32-0.58-0.45-0.876h-0.036
		c-0.142,0.308-0.296,0.592-0.438,0.876l-0.545,1.042h-1.977l1.965-2.948l-1.918-2.842H49.228z"/>
</g>
</svg>
